<mxfile host="app.diagrams.net" modified="2023-10-18T09:06:46.356Z" agent="Mozilla/5.0 (Windows NT 10.0; Win64; x64) AppleWebKit/537.36 (KHTML, like Gecko) Chrome/118.0.0.0 Safari/537.36" etag="gAwxE00o5hsOBve6vTDg" version="22.0.4" type="github">
  <diagram name="Page-1" id="cjsdhDAMOJABzA_ya90m">
    <mxGraphModel dx="1750" dy="890" grid="1" gridSize="10" guides="1" tooltips="1" connect="1" arrows="1" fold="1" page="1" pageScale="1" pageWidth="850" pageHeight="1100" math="0" shadow="0">
      <root>
        <mxCell id="0" />
        <mxCell id="1" parent="0" />
        <mxCell id="R9mAfrszLzSicFiLIH1s-2" value="products&lt;br&gt;" style="whiteSpace=wrap;html=1;align=center;fillColor=#d80073;fontColor=#ffffff;strokeColor=#A50040;" parent="1" vertex="1">
          <mxGeometry x="400" y="270" width="100" height="40" as="geometry" />
        </mxCell>
        <mxCell id="R9mAfrszLzSicFiLIH1s-3" value="price" style="ellipse;whiteSpace=wrap;html=1;align=center;" parent="1" vertex="1">
          <mxGeometry x="390" y="120" width="100" height="40" as="geometry" />
        </mxCell>
        <mxCell id="R9mAfrszLzSicFiLIH1s-4" value="productleft" style="ellipse;whiteSpace=wrap;html=1;align=center;" parent="1" vertex="1">
          <mxGeometry x="520" y="120" width="100" height="40" as="geometry" />
        </mxCell>
        <mxCell id="R9mAfrszLzSicFiLIH1s-5" value="description" style="ellipse;whiteSpace=wrap;html=1;align=center;" parent="1" vertex="1">
          <mxGeometry x="640" y="180" width="100" height="40" as="geometry" />
        </mxCell>
        <mxCell id="R9mAfrszLzSicFiLIH1s-7" value="name" style="ellipse;whiteSpace=wrap;html=1;align=center;" parent="1" vertex="1">
          <mxGeometry x="270" y="110" width="100" height="40" as="geometry" />
        </mxCell>
        <mxCell id="R9mAfrszLzSicFiLIH1s-8" value="id" style="ellipse;whiteSpace=wrap;html=1;align=center;fontStyle=4;" parent="1" vertex="1">
          <mxGeometry x="630" y="270" width="100" height="40" as="geometry" />
        </mxCell>
        <mxCell id="R9mAfrszLzSicFiLIH1s-11" value="" style="endArrow=none;html=1;rounded=0;exitX=0.5;exitY=1;exitDx=0;exitDy=0;entryX=0.25;entryY=0;entryDx=0;entryDy=0;" parent="1" source="R9mAfrszLzSicFiLIH1s-3" target="R9mAfrszLzSicFiLIH1s-2" edge="1">
          <mxGeometry relative="1" as="geometry">
            <mxPoint x="420" y="230" as="sourcePoint" />
            <mxPoint x="580" y="230" as="targetPoint" />
          </mxGeometry>
        </mxCell>
        <mxCell id="R9mAfrszLzSicFiLIH1s-13" value="" style="endArrow=none;html=1;rounded=0;exitX=0.25;exitY=0;exitDx=0;exitDy=0;" parent="1" source="R9mAfrszLzSicFiLIH1s-2" target="R9mAfrszLzSicFiLIH1s-4" edge="1">
          <mxGeometry relative="1" as="geometry">
            <mxPoint x="450" y="230" as="sourcePoint" />
            <mxPoint x="610" y="230" as="targetPoint" />
          </mxGeometry>
        </mxCell>
        <mxCell id="R9mAfrszLzSicFiLIH1s-14" value="" style="endArrow=none;html=1;rounded=0;" parent="1" source="R9mAfrszLzSicFiLIH1s-2" target="R9mAfrszLzSicFiLIH1s-5" edge="1">
          <mxGeometry relative="1" as="geometry">
            <mxPoint x="480" y="250" as="sourcePoint" />
            <mxPoint x="640" y="250" as="targetPoint" />
          </mxGeometry>
        </mxCell>
        <mxCell id="R9mAfrszLzSicFiLIH1s-15" value="" style="endArrow=none;html=1;rounded=0;entryX=0;entryY=0.5;entryDx=0;entryDy=0;" parent="1" source="R9mAfrszLzSicFiLIH1s-2" target="R9mAfrszLzSicFiLIH1s-8" edge="1">
          <mxGeometry relative="1" as="geometry">
            <mxPoint x="520" y="290" as="sourcePoint" />
            <mxPoint x="680" y="290" as="targetPoint" />
          </mxGeometry>
        </mxCell>
        <mxCell id="R9mAfrszLzSicFiLIH1s-16" value="" style="endArrow=none;html=1;rounded=0;" parent="1" target="R9mAfrszLzSicFiLIH1s-7" edge="1">
          <mxGeometry relative="1" as="geometry">
            <mxPoint x="430" y="270" as="sourcePoint" />
            <mxPoint x="450" y="380" as="targetPoint" />
          </mxGeometry>
        </mxCell>
        <mxCell id="R9mAfrszLzSicFiLIH1s-24" value="have" style="shape=rhombus;perimeter=rhombusPerimeter;whiteSpace=wrap;html=1;align=center;fillColor=#60a917;fontColor=#ffffff;strokeColor=#2D7600;" parent="1" vertex="1">
          <mxGeometry x="340" y="400" width="120" height="60" as="geometry" />
        </mxCell>
        <mxCell id="R9mAfrszLzSicFiLIH1s-25" value="" style="endArrow=none;html=1;rounded=0;" parent="1" source="R9mAfrszLzSicFiLIH1s-24" target="R9mAfrszLzSicFiLIH1s-2" edge="1">
          <mxGeometry relative="1" as="geometry">
            <mxPoint x="180" y="350" as="sourcePoint" />
            <mxPoint x="340" y="350" as="targetPoint" />
          </mxGeometry>
        </mxCell>
        <mxCell id="R9mAfrszLzSicFiLIH1s-26" value="book" style="whiteSpace=wrap;html=1;align=center;fillColor=#d80073;fontColor=#ffffff;strokeColor=#A50040;" parent="1" vertex="1">
          <mxGeometry x="190" y="510" width="100" height="40" as="geometry" />
        </mxCell>
        <mxCell id="R9mAfrszLzSicFiLIH1s-27" value="bags" style="whiteSpace=wrap;html=1;align=center;fillColor=#d80073;fontColor=#ffffff;strokeColor=#A50040;" parent="1" vertex="1">
          <mxGeometry x="460" y="520" width="100" height="40" as="geometry" />
        </mxCell>
        <mxCell id="R9mAfrszLzSicFiLIH1s-28" value="" style="endArrow=none;html=1;rounded=0;entryX=0.338;entryY=0.901;entryDx=0;entryDy=0;entryPerimeter=0;" parent="1" source="R9mAfrszLzSicFiLIH1s-26" target="R9mAfrszLzSicFiLIH1s-24" edge="1">
          <mxGeometry relative="1" as="geometry">
            <mxPoint x="200" y="480" as="sourcePoint" />
            <mxPoint x="360" y="480" as="targetPoint" />
          </mxGeometry>
        </mxCell>
        <mxCell id="R9mAfrszLzSicFiLIH1s-29" value="" style="endArrow=none;html=1;rounded=0;exitX=1;exitY=1;exitDx=0;exitDy=0;" parent="1" source="R9mAfrszLzSicFiLIH1s-24" target="R9mAfrszLzSicFiLIH1s-27" edge="1">
          <mxGeometry relative="1" as="geometry">
            <mxPoint x="460" y="490" as="sourcePoint" />
            <mxPoint x="620" y="490" as="targetPoint" />
          </mxGeometry>
        </mxCell>
        <mxCell id="R9mAfrszLzSicFiLIH1s-30" value="Customer" style="whiteSpace=wrap;html=1;align=center;fillColor=#d80073;fontColor=#ffffff;strokeColor=#A50040;" parent="1" vertex="1">
          <mxGeometry x="1050" y="440" width="100" height="40" as="geometry" />
        </mxCell>
        <mxCell id="R9mAfrszLzSicFiLIH1s-31" value="buy" style="shape=rhombus;perimeter=rhombusPerimeter;whiteSpace=wrap;html=1;align=center;fillColor=#008a00;fontColor=#ffffff;strokeColor=#005700;" parent="1" vertex="1">
          <mxGeometry x="680" y="370" width="120" height="60" as="geometry" />
        </mxCell>
        <mxCell id="R9mAfrszLzSicFiLIH1s-32" value="" style="endArrow=none;html=1;rounded=0;exitX=1;exitY=1;exitDx=0;exitDy=0;" parent="1" source="R9mAfrszLzSicFiLIH1s-2" target="R9mAfrszLzSicFiLIH1s-31" edge="1">
          <mxGeometry relative="1" as="geometry">
            <mxPoint x="510" y="370" as="sourcePoint" />
            <mxPoint x="670" y="370" as="targetPoint" />
          </mxGeometry>
        </mxCell>
        <mxCell id="R9mAfrszLzSicFiLIH1s-33" value="" style="endArrow=none;html=1;rounded=0;exitX=1;exitY=0.5;exitDx=0;exitDy=0;" parent="1" source="R9mAfrszLzSicFiLIH1s-31" target="R9mAfrszLzSicFiLIH1s-30" edge="1">
          <mxGeometry relative="1" as="geometry">
            <mxPoint x="730" y="350" as="sourcePoint" />
            <mxPoint x="890" y="350" as="targetPoint" />
          </mxGeometry>
        </mxCell>
        <mxCell id="R9mAfrszLzSicFiLIH1s-40" value="bill_infor" style="whiteSpace=wrap;html=1;align=center;fillColor=#d80073;fontColor=#ffffff;strokeColor=#A50040;" parent="1" vertex="1">
          <mxGeometry x="940" y="250" width="100" height="40" as="geometry" />
        </mxCell>
        <mxCell id="R9mAfrszLzSicFiLIH1s-42" value="" style="endArrow=none;html=1;rounded=0;exitX=1;exitY=0.5;exitDx=0;exitDy=0;entryX=0;entryY=0.5;entryDx=0;entryDy=0;" parent="1" source="R9mAfrszLzSicFiLIH1s-31" target="R9mAfrszLzSicFiLIH1s-40" edge="1">
          <mxGeometry relative="1" as="geometry">
            <mxPoint x="830" y="330" as="sourcePoint" />
            <mxPoint x="990" y="330" as="targetPoint" />
          </mxGeometry>
        </mxCell>
        <mxCell id="R9mAfrszLzSicFiLIH1s-46" value="save" style="shape=rhombus;perimeter=rhombusPerimeter;whiteSpace=wrap;html=1;align=center;" parent="1" vertex="1">
          <mxGeometry x="1120" y="220" width="120" height="60" as="geometry" />
        </mxCell>
        <mxCell id="R9mAfrszLzSicFiLIH1s-50" value="" style="endArrow=none;html=1;rounded=0;exitX=1;exitY=0.5;exitDx=0;exitDy=0;entryX=0;entryY=0.5;entryDx=0;entryDy=0;" parent="1" source="R9mAfrszLzSicFiLIH1s-40" target="R9mAfrszLzSicFiLIH1s-46" edge="1">
          <mxGeometry relative="1" as="geometry">
            <mxPoint x="1060" y="90" as="sourcePoint" />
            <mxPoint x="1220" y="90" as="targetPoint" />
          </mxGeometry>
        </mxCell>
        <mxCell id="R9mAfrszLzSicFiLIH1s-51" value="infor" style="whiteSpace=wrap;html=1;align=center;fillColor=#d80073;fontColor=#ffffff;strokeColor=#A50040;" parent="1" vertex="1">
          <mxGeometry x="1320" y="210" width="100" height="40" as="geometry" />
        </mxCell>
        <mxCell id="R9mAfrszLzSicFiLIH1s-52" value="" style="endArrow=none;html=1;rounded=0;exitX=0.951;exitY=0.502;exitDx=0;exitDy=0;exitPerimeter=0;" parent="1" source="R9mAfrszLzSicFiLIH1s-46" target="R9mAfrszLzSicFiLIH1s-51" edge="1">
          <mxGeometry relative="1" as="geometry">
            <mxPoint x="1360" y="250" as="sourcePoint" />
            <mxPoint x="1520" y="250" as="targetPoint" />
          </mxGeometry>
        </mxCell>
        <mxCell id="R9mAfrszLzSicFiLIH1s-56" value="Attribute" style="ellipse;whiteSpace=wrap;html=1;align=center;" parent="1" vertex="1">
          <mxGeometry x="1470" y="290" width="100" height="40" as="geometry" />
        </mxCell>
        <mxCell id="R9mAfrszLzSicFiLIH1s-57" value="Attribute" style="ellipse;whiteSpace=wrap;html=1;align=center;" parent="1" vertex="1">
          <mxGeometry x="1510" y="160" width="100" height="40" as="geometry" />
        </mxCell>
        <mxCell id="R9mAfrszLzSicFiLIH1s-58" value="" style="endArrow=none;html=1;rounded=0;exitX=1;exitY=0.5;exitDx=0;exitDy=0;" parent="1" source="R9mAfrszLzSicFiLIH1s-51" target="R9mAfrszLzSicFiLIH1s-57" edge="1">
          <mxGeometry relative="1" as="geometry">
            <mxPoint x="1530" y="190" as="sourcePoint" />
            <mxPoint x="1690" y="190" as="targetPoint" />
          </mxGeometry>
        </mxCell>
        <mxCell id="R9mAfrszLzSicFiLIH1s-59" value="" style="endArrow=none;html=1;rounded=0;" parent="1" source="R9mAfrszLzSicFiLIH1s-51" target="R9mAfrszLzSicFiLIH1s-56" edge="1">
          <mxGeometry relative="1" as="geometry">
            <mxPoint x="1540" y="200" as="sourcePoint" />
            <mxPoint x="1700" y="200" as="targetPoint" />
          </mxGeometry>
        </mxCell>
      </root>
    </mxGraphModel>
  </diagram>
</mxfile>
